<svg viewBox="0 0 320 520" height="100%" width="100%" fill="none" xmlns="http://www.w3.org/2000/svg">
	<style>
		@font-face {
		font-family: "Helvetica Now Variable";
		src: url("/fonts/HelveticaNowVar.ttf") format("truetype");
		font-weight: normal;
		}
		
		@font-face {
		font-family: "Helvetica Monospaced Pro";
		src: url("/fonts/design-system/HelveticaMonospacedPro-Rg.woff2")
		format("woff2");
		font-weight: normal;
		font-display: swap;
		}
		.font-smoothing {
			-webkit-font-smoothing: antialiased;
			-moz-osx-font-smoothing: grayscale;
			font-weight: normal;
			text-transform: uppercase;
		}
	</style>
	
  <g transform="scale(0.9)" transform-origin="50% 50%">
	<rect width="320" height="520" rx="16" fill="url(#paint0_radial_1_48)"></rect>
	<g filter="url(#filter0_i_1_48)">
		<rect x="16" y="16.124" width="288" height="136" rx="4" fill="black"></rect>
	</g>
	<!-- {/* Swoosh Handle */} -->
	<text id="textSwooshHandle" x="25" y="48" fill="white" font-size="1.68rem" class="font-smoothing" font-family="Helvetica Now Variable, Helvetica Monospaced Pro, Helvetica, Arial, sans-serif">KAVITA</text>
	<!-- {/* Swoosh Handle */} -->
	<!-- {/* Date & Time Now */} -->
	<text id="textDate" x="24" y="125" fill="white" font-size="0.83rem" font-family="Helvetica Now Variable, Helvetica Monospaced Pro, Helvetica, Arial, sans-serif" class="font-smoothing">11.18.2022</text>
	<text id="textTime" x="24" y="138" fill="white" font-size="0.83rem" font-family="Helvetica Now Variable, Helvetica Monospaced Pro, Helvetica, Arial, sans-serif" class="font-smoothing">00:09:55 UTC</text>
	<!-- {/* Date & Time Now */} -->


	<path d="M296 122.085L260.418 137.223C256.591 138.854 250.577 140.725 248.066 136.679C246.673 134.423 247.559 130.924 249.618 127.724C250.933 125.678 252.622 123.807 254.316 121.938C253.365 123.463 250.737 128.59 254.194 131.134C255.543 132.128 257.911 132.244 260.848 131.446L296 122.085Z" fill="white"></path>
	<g filter="url(#filter1_d_1_48)">
		<path d="M27.32 83.7475V88.1875H31.76V83.7475H27.32ZM53.7728 67.9875H57.3728C57.3195 66.4142 57.0128 65.0675 56.4528 63.9475C55.9195 62.8008 55.1728 61.8542 54.2128 61.1075C53.2795 60.3608 52.1861 59.8142 50.9328 59.4675C49.6795 59.1208 48.3195 58.9475 46.8528 58.9475C45.5461 58.9475 44.2661 59.1208 43.0128 59.4675C41.7861 59.7875 40.6795 60.2942 39.6928 60.9875C38.7328 61.6542 37.9595 62.5208 37.3728 63.5875C36.7861 64.6275 36.4928 65.8675 36.4928 67.3075C36.4928 68.6142 36.7461 69.7075 37.2528 70.5875C37.7861 71.4408 38.4795 72.1475 39.3328 72.7075C40.2128 73.2408 41.1995 73.6808 42.2928 74.0275C43.3861 74.3475 44.4928 74.6408 45.6128 74.9075C46.7595 75.1475 47.8795 75.3875 48.9728 75.6275C50.0661 75.8675 51.0395 76.1875 51.8928 76.5875C52.7728 76.9608 53.4661 77.4542 53.9728 78.0675C54.5061 78.6808 54.7728 79.4808 54.7728 80.4675C54.7728 81.5075 54.5595 82.3608 54.1328 83.0275C53.7061 83.6942 53.1461 84.2275 52.4528 84.6275C51.7595 85.0008 50.9728 85.2675 50.0928 85.4275C49.2395 85.5875 48.3861 85.6675 47.5328 85.6675C46.4661 85.6675 45.4261 85.5342 44.4128 85.2675C43.3995 85.0008 42.5061 84.5875 41.7328 84.0275C40.9861 83.4675 40.3728 82.7608 39.8928 81.9075C39.4395 81.0275 39.2128 79.9875 39.2128 78.7875H35.6128C35.6128 80.5208 35.9195 82.0275 36.5328 83.3075C37.1728 84.5608 38.0261 85.6008 39.0928 86.4275C40.1861 87.2275 41.4395 87.8275 42.8528 88.2275C44.2928 88.6275 45.8128 88.8275 47.4128 88.8275C48.7195 88.8275 50.0261 88.6675 51.3328 88.3475C52.6661 88.0542 53.8661 87.5742 54.9328 86.9075C55.9995 86.2142 56.8661 85.3342 57.5328 84.2675C58.2261 83.1742 58.5728 81.8675 58.5728 80.3475C58.5728 78.9342 58.3061 77.7608 57.7728 76.8275C57.2661 75.8942 56.5728 75.1208 55.6928 74.5075C54.8395 73.8942 53.8661 73.4142 52.7728 73.0675C51.6795 72.6942 50.5595 72.3742 49.4128 72.1075C48.2928 71.8408 47.1861 71.6008 46.0928 71.3875C44.9995 71.1475 44.0128 70.8542 43.1328 70.5075C42.2795 70.1608 41.5861 69.7208 41.0528 69.1875C40.5461 68.6275 40.2928 67.9075 40.2928 67.0275C40.2928 66.0942 40.4661 65.3208 40.8128 64.7075C41.1861 64.0675 41.6661 63.5608 42.2528 63.1875C42.8661 62.8142 43.5595 62.5475 44.3328 62.3875C45.1061 62.2275 45.8928 62.1475 46.6928 62.1475C48.6661 62.1475 50.2795 62.6142 51.5328 63.5475C52.8128 64.4542 53.5595 65.9342 53.7728 67.9875ZM87.9903 88.1875L95.6303 59.6275H91.8303L86.0303 83.3875H85.9503L79.6303 59.6275H75.5103L69.1103 83.3875H69.0303L63.4303 59.6275H59.5503L66.8703 88.1875H70.8303L77.4303 64.1875H77.5103L84.0303 88.1875H87.9903ZM100.422 73.9075C100.422 72.4675 100.608 71.0542 100.982 69.6675C101.355 68.2542 101.942 66.9875 102.742 65.8675C103.542 64.7475 104.568 63.8542 105.822 63.1875C107.075 62.4942 108.568 62.1475 110.302 62.1475C112.035 62.1475 113.528 62.4942 114.782 63.1875C116.035 63.8542 117.062 64.7475 117.862 65.8675C118.662 66.9875 119.248 68.2542 119.622 69.6675C119.995 71.0542 120.182 72.4675 120.182 73.9075C120.182 75.3475 119.995 76.7742 119.622 78.1875C119.248 79.5742 118.662 80.8275 117.862 81.9475C117.062 83.0675 116.035 83.9742 114.782 84.6675C113.528 85.3342 112.035 85.6675 110.302 85.6675C108.568 85.6675 107.075 85.3342 105.822 84.6675C104.568 83.9742 103.542 83.0675 102.742 81.9475C101.942 80.8275 101.355 79.5742 100.982 78.1875C100.608 76.7742 100.422 75.3475 100.422 73.9075ZM96.6216 73.9075C96.6216 75.8542 96.9016 77.7342 97.4616 79.5475C98.0482 81.3342 98.9149 82.9208 100.062 84.3075C101.208 85.6942 102.635 86.8008 104.342 87.6275C106.048 88.4275 108.035 88.8275 110.302 88.8275C112.568 88.8275 114.555 88.4275 116.262 87.6275C117.968 86.8008 119.395 85.6942 120.542 84.3075C121.688 82.9208 122.542 81.3342 123.102 79.5475C123.688 77.7342 123.982 75.8542 123.982 73.9075C123.982 71.9608 123.688 70.0942 123.102 68.3075C122.542 66.4942 121.688 64.8942 120.542 63.5075C119.395 62.1208 117.968 61.0142 116.262 60.1875C114.555 59.3608 112.568 58.9475 110.302 58.9475C108.035 58.9475 106.048 59.3608 104.342 60.1875C102.635 61.0142 101.208 62.1208 100.062 63.5075C98.9149 64.8942 98.0482 66.4942 97.4616 68.3075C96.9016 70.0942 96.6216 71.9608 96.6216 73.9075ZM129.812 73.9075C129.812 72.4675 129.999 71.0542 130.372 69.6675C130.746 68.2542 131.332 66.9875 132.132 65.8675C132.932 64.7475 133.959 63.8542 135.212 63.1875C136.466 62.4942 137.959 62.1475 139.692 62.1475C141.426 62.1475 142.919 62.4942 144.172 63.1875C145.426 63.8542 146.452 64.7475 147.252 65.8675C148.052 66.9875 148.639 68.2542 149.012 69.6675C149.386 71.0542 149.572 72.4675 149.572 73.9075C149.572 75.3475 149.386 76.7742 149.012 78.1875C148.639 79.5742 148.052 80.8275 147.252 81.9475C146.452 83.0675 145.426 83.9742 144.172 84.6675C142.919 85.3342 141.426 85.6675 139.692 85.6675C137.959 85.6675 136.466 85.3342 135.212 84.6675C133.959 83.9742 132.932 83.0675 132.132 81.9475C131.332 80.8275 130.746 79.5742 130.372 78.1875C129.999 76.7742 129.812 75.3475 129.812 73.9075ZM126.012 73.9075C126.012 75.8542 126.292 77.7342 126.852 79.5475C127.439 81.3342 128.306 82.9208 129.452 84.3075C130.599 85.6942 132.026 86.8008 133.732 87.6275C135.439 88.4275 137.426 88.8275 139.692 88.8275C141.959 88.8275 143.946 88.4275 145.652 87.6275C147.359 86.8008 148.786 85.6942 149.932 84.3075C151.079 82.9208 151.932 81.3342 152.492 79.5475C153.079 77.7342 153.372 75.8542 153.372 73.9075C153.372 71.9608 153.079 70.0942 152.492 68.3075C151.932 66.4942 151.079 64.8942 149.932 63.5075C148.786 62.1208 147.359 61.0142 145.652 60.1875C143.946 59.3608 141.959 58.9475 139.692 58.9475C137.426 58.9475 135.439 59.3608 133.732 60.1875C132.026 61.0142 130.599 62.1208 129.452 63.5075C128.306 64.8942 127.439 66.4942 126.852 68.3075C126.292 70.0942 126.012 71.9608 126.012 73.9075ZM173.523 67.9875H177.123C177.069 66.4142 176.763 65.0675 176.203 63.9475C175.669 62.8008 174.923 61.8542 173.963 61.1075C173.029 60.3608 171.936 59.8142 170.683 59.4675C169.429 59.1208 168.069 58.9475 166.603 58.9475C165.296 58.9475 164.016 59.1208 162.763 59.4675C161.536 59.7875 160.429 60.2942 159.443 60.9875C158.483 61.6542 157.709 62.5208 157.123 63.5875C156.536 64.6275 156.243 65.8675 156.243 67.3075C156.243 68.6142 156.496 69.7075 157.003 70.5875C157.536 71.4408 158.229 72.1475 159.083 72.7075C159.963 73.2408 160.949 73.6808 162.043 74.0275C163.136 74.3475 164.243 74.6408 165.363 74.9075C166.509 75.1475 167.629 75.3875 168.723 75.6275C169.816 75.8675 170.789 76.1875 171.643 76.5875C172.523 76.9608 173.216 77.4542 173.723 78.0675C174.256 78.6808 174.523 79.4808 174.523 80.4675C174.523 81.5075 174.309 82.3608 173.883 83.0275C173.456 83.6942 172.896 84.2275 172.203 84.6275C171.509 85.0008 170.723 85.2675 169.843 85.4275C168.989 85.5875 168.136 85.6675 167.283 85.6675C166.216 85.6675 165.176 85.5342 164.163 85.2675C163.149 85.0008 162.256 84.5875 161.483 84.0275C160.736 83.4675 160.123 82.7608 159.643 81.9075C159.189 81.0275 158.963 79.9875 158.963 78.7875H155.363C155.363 80.5208 155.669 82.0275 156.283 83.3075C156.923 84.5608 157.776 85.6008 158.843 86.4275C159.936 87.2275 161.189 87.8275 162.603 88.2275C164.043 88.6275 165.563 88.8275 167.163 88.8275C168.469 88.8275 169.776 88.6675 171.083 88.3475C172.416 88.0542 173.616 87.5742 174.683 86.9075C175.749 86.2142 176.616 85.3342 177.283 84.2675C177.976 83.1742 178.323 81.8675 178.323 80.3475C178.323 78.9342 178.056 77.7608 177.523 76.8275C177.016 75.8942 176.323 75.1208 175.443 74.5075C174.589 73.8942 173.616 73.4142 172.523 73.0675C171.429 72.6942 170.309 72.3742 169.163 72.1075C168.043 71.8408 166.936 71.6008 165.843 71.3875C164.749 71.1475 163.763 70.8542 162.883 70.5075C162.029 70.1608 161.336 69.7208 160.803 69.1875C160.296 68.6275 160.043 67.9075 160.043 67.0275C160.043 66.0942 160.216 65.3208 160.563 64.7075C160.936 64.0675 161.416 63.5608 162.003 63.1875C162.616 62.8142 163.309 62.5475 164.083 62.3875C164.856 62.2275 165.643 62.1475 166.443 62.1475C168.416 62.1475 170.029 62.6142 171.283 63.5475C172.563 64.4542 173.309 65.9342 173.523 67.9875ZM181.94 59.6275V88.1875H185.74V75.1075H200.78V88.1875H204.58V59.6275H200.78V71.9075H185.74V59.6275H181.94Z" fill="white"></path>
	</g>
	<g clip-path="url(#clip0_1_48)">
		<g filter="url(#filter2_i_1_48)">
			<rect x="16" y="168" width="288" height="32" rx="4" fill="#111111"></rect>
		</g>
		<g filter="url(#filter3_f_1_48)">
			<path d="M13.782 185.596H11.77C11.7612 186.179 11.8671 186.683 12.0877 187.107C12.3083 187.531 12.6039 187.879 12.9745 188.153C13.354 188.427 13.7864 188.626 14.2718 188.749C14.7659 188.882 15.2734 188.948 15.794 188.948C16.4382 188.948 17.003 188.873 17.4883 188.723C17.9825 188.573 18.3929 188.365 18.7194 188.1C19.0547 187.826 19.3062 187.504 19.4739 187.133C19.6415 186.762 19.7254 186.36 19.7254 185.928C19.7254 185.398 19.6107 184.965 19.3812 184.629C19.1606 184.285 18.8959 184.011 18.587 183.808C18.2781 183.605 17.9649 183.459 17.6472 183.371C17.3383 183.274 17.0956 183.207 16.9191 183.172C16.3279 183.022 15.847 182.898 15.4763 182.801C15.1145 182.704 14.8277 182.607 14.6159 182.51C14.413 182.412 14.2762 182.306 14.2056 182.192C14.135 182.077 14.0997 181.927 14.0997 181.741C14.0997 181.538 14.1438 181.37 14.232 181.238C14.3203 181.105 14.4306 180.995 14.563 180.907C14.7042 180.818 14.8586 180.756 15.0263 180.721C15.1939 180.686 15.3616 180.668 15.5293 180.668C15.7852 180.668 16.019 180.69 16.2308 180.734C16.4514 180.779 16.6456 180.854 16.8133 180.96C16.9809 181.066 17.1133 181.211 17.2104 181.397C17.3163 181.582 17.378 181.816 17.3957 182.099H19.4077C19.4077 181.551 19.3018 181.088 19.09 180.708C18.887 180.319 18.6091 180.001 18.2561 179.754C17.9031 179.507 17.4972 179.33 17.0383 179.224C16.5882 179.109 16.1161 179.052 15.6219 179.052C15.1983 179.052 14.7748 179.109 14.3512 179.224C13.9276 179.339 13.5481 179.516 13.2128 179.754C12.8775 179.993 12.6039 180.293 12.3921 180.655C12.1891 181.008 12.0877 181.428 12.0877 181.913C12.0877 182.346 12.1671 182.717 12.3259 183.026C12.4936 183.327 12.7098 183.578 12.9745 183.781C13.2393 183.985 13.5393 184.152 13.8747 184.285C14.21 184.408 14.5541 184.514 14.9071 184.603C15.2513 184.7 15.591 184.788 15.9264 184.868C16.2617 184.947 16.5617 185.04 16.8265 185.146C17.0912 185.252 17.303 185.384 17.4619 185.543C17.6295 185.702 17.7134 185.91 17.7134 186.166C17.7134 186.404 17.6516 186.603 17.528 186.762C17.4045 186.912 17.2501 187.032 17.0648 187.12C16.8794 187.208 16.6809 187.27 16.4691 187.305C16.2573 187.332 16.0587 187.345 15.8734 187.345C15.5999 187.345 15.3351 187.314 15.0792 187.252C14.8233 187.182 14.5983 187.08 14.4041 186.948C14.2188 186.806 14.0688 186.625 13.9541 186.404C13.8394 186.184 13.782 185.914 13.782 185.596Z" fill="white"></path>
			<path d="M29.8306 188.736L32.3721 179.277H30.3336L28.7849 185.795H28.7584L27.1435 179.277H25.1977L23.5563 185.716H23.5299L22.0341 179.277H19.9559L22.4577 188.736H24.5623L26.1375 182.298H26.164L27.7657 188.736H29.8306Z" fill="white"></path>
			<path d="M34.7989 184.046C34.7989 183.631 34.8431 183.229 34.9313 182.841C35.0284 182.452 35.1784 182.108 35.3814 181.807C35.5843 181.498 35.8491 181.255 36.1756 181.079C36.5021 180.893 36.8992 180.801 37.3669 180.801C37.8346 180.801 38.2317 180.893 38.5582 181.079C38.8847 181.255 39.1495 181.498 39.3524 181.807C39.5554 182.108 39.701 182.452 39.7893 182.841C39.8863 183.229 39.9349 183.631 39.9349 184.046C39.9349 184.444 39.8863 184.832 39.7893 185.212C39.701 185.583 39.5554 185.919 39.3524 186.219C39.1495 186.519 38.8847 186.762 38.5582 186.948C38.2317 187.124 37.8346 187.213 37.3669 187.213C36.8992 187.213 36.5021 187.124 36.1756 186.948C35.8491 186.762 35.5843 186.519 35.3814 186.219C35.1784 185.919 35.0284 185.583 34.9313 185.212C34.8431 184.832 34.7989 184.444 34.7989 184.046ZM32.7207 184.046C32.7207 184.735 32.8266 185.38 33.0384 185.981C33.2502 186.572 33.5547 187.089 33.9518 187.531C34.3489 187.972 34.8342 188.321 35.4078 188.577C35.9903 188.824 36.6433 188.948 37.3669 188.948C38.0993 188.948 38.7524 188.824 39.326 188.577C39.8996 188.321 40.3849 187.972 40.782 187.531C41.1791 187.089 41.4836 186.572 41.6954 185.981C41.9072 185.38 42.0131 184.735 42.0131 184.046C42.0131 183.34 41.9072 182.686 41.6954 182.086C41.4836 181.476 41.1791 180.946 40.782 180.496C40.3849 180.046 39.8996 179.692 39.326 179.436C38.7524 179.18 38.0993 179.052 37.3669 179.052C36.6433 179.052 35.9903 179.18 35.4078 179.436C34.8342 179.692 34.3489 180.046 33.9518 180.496C33.5547 180.946 33.2502 181.476 33.0384 182.086C32.8266 182.686 32.7207 183.34 32.7207 184.046Z" fill="white"></path>
			<path d="M44.9691 184.046C44.9691 183.631 45.0133 183.229 45.1015 182.841C45.1986 182.452 45.3486 182.108 45.5516 181.807C45.7545 181.498 46.0193 181.255 46.3458 181.079C46.6723 180.893 47.0694 180.801 47.5371 180.801C48.0048 180.801 48.4019 180.893 48.7284 181.079C49.0549 181.255 49.3197 181.498 49.5226 181.807C49.7256 182.108 49.8712 182.452 49.9595 182.841C50.0565 183.229 50.1051 183.631 50.1051 184.046C50.1051 184.444 50.0565 184.832 49.9595 185.212C49.8712 185.583 49.7256 185.919 49.5226 186.219C49.3197 186.519 49.0549 186.762 48.7284 186.948C48.4019 187.124 48.0048 187.213 47.5371 187.213C47.0694 187.213 46.6723 187.124 46.3458 186.948C46.0193 186.762 45.7545 186.519 45.5516 186.219C45.3486 185.919 45.1986 185.583 45.1015 185.212C45.0133 184.832 44.9691 184.444 44.9691 184.046ZM42.8909 184.046C42.8909 184.735 42.9968 185.38 43.2086 185.981C43.4204 186.572 43.7249 187.089 44.122 187.531C44.5191 187.972 45.0044 188.321 45.578 188.577C46.1605 188.824 46.8135 188.948 47.5371 188.948C48.2695 188.948 48.9226 188.824 49.4962 188.577C50.0698 188.321 50.5551 187.972 50.9522 187.531C51.3493 187.089 51.6538 186.572 51.8656 185.981C52.0774 185.38 52.1833 184.735 52.1833 184.046C52.1833 183.34 52.0774 182.686 51.8656 182.086C51.6538 181.476 51.3493 180.946 50.9522 180.496C50.5551 180.046 50.0698 179.692 49.4962 179.436C48.9226 179.18 48.2695 179.052 47.5371 179.052C46.8135 179.052 46.1605 179.18 45.578 179.436C45.0044 179.692 44.5191 180.046 44.122 180.496C43.7249 180.946 43.4204 181.476 43.2086 182.086C42.9968 182.686 42.8909 183.34 42.8909 184.046Z" fill="white"></path>
			<path d="M54.8878 185.596H52.8758C52.867 186.179 52.9729 186.683 53.1935 187.107C53.4141 187.531 53.7098 187.879 54.0804 188.153C54.4599 188.427 54.8923 188.626 55.3776 188.749C55.8718 188.882 56.3792 188.948 56.8999 188.948C57.5441 188.948 58.1088 188.873 58.5942 188.723C59.0884 188.573 59.4987 188.365 59.8252 188.1C60.1606 187.826 60.4121 187.504 60.5797 187.133C60.7474 186.762 60.8312 186.36 60.8312 185.928C60.8312 185.398 60.7165 184.965 60.4871 184.629C60.2664 184.285 60.0017 184.011 59.6928 183.808C59.384 183.605 59.0707 183.459 58.753 183.371C58.4442 183.274 58.2015 183.207 58.025 183.172C57.4337 183.022 56.9528 182.898 56.5822 182.801C56.2204 182.704 55.9336 182.607 55.7218 182.51C55.5188 182.412 55.382 182.306 55.3114 182.192C55.2408 182.077 55.2055 181.927 55.2055 181.741C55.2055 181.538 55.2496 181.37 55.3379 181.238C55.4261 181.105 55.5365 180.995 55.6688 180.907C55.81 180.818 55.9644 180.756 56.1321 180.721C56.2998 180.686 56.4674 180.668 56.6351 180.668C56.891 180.668 57.1249 180.69 57.3367 180.734C57.5573 180.779 57.7514 180.854 57.9191 180.96C58.0868 181.066 58.2191 181.211 58.3162 181.397C58.4221 181.582 58.4839 181.816 58.5015 182.099H60.5135C60.5135 181.551 60.4076 181.088 60.1959 180.708C59.9929 180.319 59.7149 180.001 59.3619 179.754C59.0089 179.507 58.603 179.33 58.1441 179.224C57.6941 179.109 57.222 179.052 56.7278 179.052C56.3042 179.052 55.8806 179.109 55.457 179.224C55.0335 179.339 54.654 179.516 54.3187 179.754C53.9833 179.993 53.7098 180.293 53.498 180.655C53.295 181.008 53.1935 181.428 53.1935 181.913C53.1935 182.346 53.2729 182.717 53.4318 183.026C53.5994 183.327 53.8157 183.578 54.0804 183.781C54.3451 183.985 54.6452 184.152 54.9805 184.285C55.3158 184.408 55.66 184.514 56.013 184.603C56.3571 184.7 56.6969 184.788 57.0322 184.868C57.3676 184.947 57.6676 185.04 57.9323 185.146C58.1971 185.252 58.4089 185.384 58.5677 185.543C58.7354 185.702 58.8192 185.91 58.8192 186.166C58.8192 186.404 58.7574 186.603 58.6339 186.762C58.5104 186.912 58.3559 187.032 58.1706 187.12C57.9853 187.208 57.7867 187.27 57.5749 187.305C57.3631 187.332 57.1646 187.345 56.9793 187.345C56.7057 187.345 56.441 187.314 56.1851 187.252C55.9291 187.182 55.7041 187.08 55.51 186.948C55.3247 186.806 55.1746 186.625 55.0599 186.404C54.9452 186.184 54.8878 185.914 54.8878 185.596Z" fill="white"></path>
			<path d="M61.9354 179.277V188.736H64.0136V184.656H67.839V188.736H69.9172V179.277H67.839V182.907H64.0136V179.277H61.9354Z" fill="white"></path>
			<path d="M196.731 184V188.948H202.31V184H196.731Z" fill="white"></path>
			<path d="M230.874 188.948C233.564 188.948 234.847 187.566 234.847 184.262V183.773C234.847 180.47 233.564 179.087 230.874 179.087C228.17 179.087 226.888 180.47 226.888 183.773V184.262C226.888 187.566 228.17 188.948 230.874 188.948ZM230.805 187.517C229.302 187.517 228.777 186.416 228.777 184.262V183.773C228.777 181.62 229.302 180.519 230.805 180.519H230.929C232.433 180.519 232.957 181.62 232.957 183.773V184.262C232.957 186.416 232.433 187.517 230.929 187.517H230.805Z" fill="white"></path>
			<path d="M248.765 184.617C250.475 184.886 250.889 185.425 250.779 186.208L250.765 186.305C250.655 187.101 249.924 187.517 248.765 187.517H248.627C247.468 187.517 246.792 186.966 247.054 185.571H245.206L245.165 185.841C244.847 187.908 246.185 188.948 248.641 188.948C250.986 188.948 252.379 188.055 252.627 186.416L252.668 186.146C252.903 184.605 251.951 183.663 249.661 183.296C247.923 183.014 247.606 182.549 247.717 181.803L247.73 181.705C247.827 180.971 248.558 180.519 249.579 180.519H249.717C250.986 180.519 251.468 181.155 251.234 182.586H253.082L253.124 182.317C253.441 180.249 252.406 179.087 249.703 179.087C247.592 179.087 246.116 179.956 245.868 181.595L245.827 181.864C245.606 183.271 246.475 184.25 248.765 184.617Z" fill="white"></path>
			<path d="M259.801 179.246V183.21H256.146V179.246H254.297V188.789H256.146V184.629H259.801V188.789H261.649V179.246H259.801Z" fill="white"></path>
			<path d="M221.874 188.948H224.349L226.255 179.052H224.264L222.998 186.676L221.249 179.052H218.845L217.11 186.676L215.844 179.052H213.853L215.759 188.948H218.219L220.054 180.971L221.874 188.948Z" fill="white"></path>
			<path d="M213.338 185.374C213.338 185.886 213.196 186.326 212.913 186.695C212.639 187.063 212.224 187.387 211.667 187.665C211.444 187.782 210.917 188.02 210.087 188.38C209.155 188.784 208.648 188.986 208.567 188.986C208.557 188.986 208.238 188.761 207.61 188.312C207.256 188.061 206.921 187.881 206.607 187.773C206.304 187.665 205.964 187.571 205.589 187.49C205.225 187.4 204.875 187.355 204.541 187.355V187.153C204.966 186.874 205.351 186.591 205.696 186.304C206.101 185.962 206.374 185.792 206.516 185.792C206.962 185.792 207.539 185.931 208.248 186.209C208.765 186.407 209.14 186.582 209.373 186.735C209.606 186.888 209.823 187.077 210.026 187.301C210.158 187.445 210.274 187.517 210.375 187.517C210.517 187.517 210.639 187.441 210.74 187.288C210.841 187.126 210.892 186.942 210.892 186.735C210.892 186.214 210.416 185.72 209.464 185.252C208.572 184.839 207.681 184.426 206.79 184.012C205.817 183.455 205.331 182.817 205.331 182.098C205.331 181.739 205.448 181.406 205.681 181.101C206.005 180.669 206.542 180.315 207.291 180.036C209.033 179.38 209.985 179.052 210.148 179.052C210.178 179.052 210.421 179.277 210.877 179.726C211.12 179.969 211.363 180.166 211.606 180.319C211.738 180.409 211.91 180.494 212.123 180.575C212.72 180.809 213.029 180.93 213.05 180.939C212.958 181.02 212.644 181.182 212.108 181.424C211.925 181.505 211.657 181.622 211.302 181.775C211.171 181.748 211.059 181.725 210.968 181.707C210.441 181.582 210.001 181.438 209.646 181.276C209.211 181.06 208.871 180.75 208.628 180.346C208.537 180.202 208.436 180.13 208.324 180.13C208.182 180.13 208.036 180.207 207.884 180.359C207.701 180.548 207.61 180.768 207.61 181.02C207.61 181.218 208.193 181.568 209.357 182.071C210.036 182.368 210.573 182.619 210.968 182.826C211.849 183.293 212.422 183.648 212.685 183.891C213.12 184.286 213.338 184.781 213.338 185.374Z" fill="white"></path>
			<path d="M241.609 180.498H238.451V181.202H237.661V186.836H238.451V187.54H241.609V186.836H242.399V181.202H241.609V180.498ZM237.661 179.794V179.09H242.399V179.794H243.188V180.498H243.978V187.54H243.188V188.244H242.399V188.948H237.661V188.244H236.872V187.54H236.082V180.498H236.872V179.794H237.661Z" fill="white"></path>
			<path d="M285.649 188.742H290.575V187.575H288.77V180.167H290.575V179H285.649V180.167H287.454V187.575H285.649V188.742Z" fill="white"></path>
			<path d="M293.324 188.742H296.133C298.602 188.742 299.728 186.436 299.728 183.735C299.728 181.144 298.534 179 296.187 179H293.324V188.742ZM294.64 187.616V180.126H295.997C297.72 180.126 298.385 181.795 298.385 183.817C298.385 185.771 297.774 187.616 296.105 187.616H294.64Z" fill="white"></path>
			<path d="M303.685 183.179H305.096V181.741H303.685V183.179ZM303.685 188.742H305.096V187.304H303.685V188.742Z" fill="white"></path>
			<path d="M312.526 189C315.104 189 315.796 186.531 315.796 184.102C315.783 181.7 315.104 179.204 312.526 179.204C309.935 179.204 309.256 181.7 309.256 184.102C309.256 186.476 309.921 189 312.526 189ZM312.526 187.928C311.224 187.928 310.532 186.571 310.532 184.102C310.532 181.551 311.251 180.275 312.526 180.275C313.829 180.275 314.521 181.551 314.521 184.102C314.521 186.666 313.829 187.928 312.526 187.928Z" fill="white"></path>
			<path d="M320.662 189C323.24 189 323.932 186.531 323.932 184.102C323.919 181.7 323.24 179.204 320.662 179.204C318.071 179.204 317.392 181.7 317.392 184.102C317.392 186.476 318.057 189 320.662 189ZM320.662 187.928C319.36 187.928 318.668 186.571 318.668 184.102C318.668 181.551 319.387 180.275 320.662 180.275C321.965 180.275 322.657 181.551 322.657 184.102C322.657 186.666 321.965 187.928 320.662 187.928Z" fill="white"></path>
			<path d="M326.328 188.742H331.919V187.616H329.87V179.204H328.934C328.757 179.95 328.486 180.425 328.106 180.655C327.726 180.872 327.143 180.995 326.369 181.022V181.972H328.594V187.616H326.328V188.742Z" fill="white"></path>
			<path d="M333.84 186.449C333.854 188.023 335.061 189 336.676 189C339.39 189 340.136 186.028 340.136 183.627C340.136 180.682 338.996 179.204 336.798 179.204C334.898 179.204 333.732 180.628 333.732 182.474C333.732 184.305 334.898 185.554 336.73 185.554C337.68 185.554 338.399 185.174 338.915 184.414L338.942 184.441C338.711 186.015 338.481 188.009 336.649 188.009C335.672 188.009 335.116 187.399 335.034 186.449H333.84ZM336.907 184.482C335.59 184.482 334.966 183.749 334.966 182.419C334.966 181.239 335.604 180.275 336.812 180.275C338.074 180.275 338.738 181.117 338.738 182.311C338.738 183.559 338.155 184.482 336.907 184.482Z" fill="white"></path>
			<path d="M345.07 189C347.648 189 348.34 186.531 348.34 184.102C348.326 181.7 347.648 179.204 345.07 179.204C342.478 179.204 341.8 181.7 341.8 184.102C341.8 186.476 342.464 189 345.07 189ZM345.07 187.928C343.767 187.928 343.075 186.571 343.075 184.102C343.075 181.551 343.794 180.275 345.07 180.275C346.372 180.275 347.064 181.551 347.064 184.102C347.064 186.666 346.372 187.928 345.07 187.928Z" fill="white"></path>
			<path d="M353.205 189C355.783 189 356.475 186.531 356.475 184.102C356.462 181.7 355.783 179.204 353.205 179.204C350.614 179.204 349.935 181.7 349.935 184.102C349.935 186.476 350.6 189 353.205 189ZM353.205 187.928C351.903 187.928 351.211 186.571 351.211 184.102C351.211 181.551 351.93 180.275 353.205 180.275C354.508 180.275 355.2 181.551 355.2 184.102C355.2 186.666 354.508 187.928 353.205 187.928Z" fill="white"></path>
			<path d="M358.872 188.742H364.462V187.616H362.413V179.204H361.477C361.3 179.95 361.029 180.425 360.649 180.655C360.269 180.872 359.686 180.995 358.912 181.022V181.972H361.138V187.616H358.872V188.742Z" fill="white"></path>
		</g>
		<path d="M13.782 185.596H11.77C11.7612 186.179 11.8671 186.683 12.0877 187.107C12.3083 187.531 12.6039 187.879 12.9745 188.153C13.354 188.427 13.7864 188.626 14.2718 188.749C14.7659 188.882 15.2734 188.948 15.794 188.948C16.4382 188.948 17.003 188.873 17.4883 188.723C17.9825 188.573 18.3929 188.365 18.7194 188.1C19.0547 187.826 19.3062 187.504 19.4739 187.133C19.6415 186.762 19.7254 186.36 19.7254 185.928C19.7254 185.398 19.6107 184.965 19.3812 184.629C19.1606 184.285 18.8959 184.011 18.587 183.808C18.2781 183.605 17.9649 183.459 17.6472 183.371C17.3383 183.274 17.0956 183.207 16.9191 183.172C16.3279 183.022 15.847 182.898 15.4763 182.801C15.1145 182.704 14.8277 182.607 14.6159 182.51C14.413 182.412 14.2762 182.306 14.2056 182.192C14.135 182.077 14.0997 181.927 14.0997 181.741C14.0997 181.538 14.1438 181.37 14.232 181.238C14.3203 181.105 14.4306 180.995 14.563 180.907C14.7042 180.818 14.8586 180.756 15.0263 180.721C15.1939 180.686 15.3616 180.668 15.5293 180.668C15.7852 180.668 16.019 180.69 16.2308 180.734C16.4514 180.779 16.6456 180.854 16.8133 180.96C16.9809 181.066 17.1133 181.211 17.2104 181.397C17.3163 181.582 17.378 181.816 17.3957 182.099H19.4077C19.4077 181.551 19.3018 181.088 19.09 180.708C18.887 180.319 18.6091 180.001 18.2561 179.754C17.9031 179.507 17.4972 179.33 17.0383 179.224C16.5882 179.109 16.1161 179.052 15.6219 179.052C15.1983 179.052 14.7748 179.109 14.3512 179.224C13.9276 179.339 13.5481 179.516 13.2128 179.754C12.8775 179.993 12.6039 180.293 12.3921 180.655C12.1891 181.008 12.0877 181.428 12.0877 181.913C12.0877 182.346 12.1671 182.717 12.3259 183.026C12.4936 183.327 12.7098 183.578 12.9745 183.781C13.2393 183.985 13.5393 184.152 13.8747 184.285C14.21 184.408 14.5541 184.514 14.9071 184.603C15.2513 184.7 15.591 184.788 15.9264 184.868C16.2617 184.947 16.5617 185.04 16.8265 185.146C17.0912 185.252 17.303 185.384 17.4619 185.543C17.6295 185.702 17.7134 185.91 17.7134 186.166C17.7134 186.404 17.6516 186.603 17.528 186.762C17.4045 186.912 17.2501 187.032 17.0648 187.12C16.8794 187.208 16.6809 187.27 16.4691 187.305C16.2573 187.332 16.0587 187.345 15.8734 187.345C15.5999 187.345 15.3351 187.314 15.0792 187.252C14.8233 187.182 14.5983 187.08 14.4041 186.948C14.2188 186.806 14.0688 186.625 13.9541 186.404C13.8394 186.184 13.782 185.914 13.782 185.596Z" fill="white"></path>
		<path d="M29.8306 188.736L32.3721 179.277H30.3336L28.7849 185.795H28.7584L27.1435 179.277H25.1977L23.5563 185.716H23.5299L22.0341 179.277H19.9559L22.4577 188.736H24.5623L26.1375 182.298H26.164L27.7657 188.736H29.8306Z" fill="white"></path>
		<path d="M34.7989 184.046C34.7989 183.631 34.8431 183.229 34.9313 182.841C35.0284 182.452 35.1784 182.108 35.3814 181.807C35.5843 181.498 35.8491 181.255 36.1756 181.079C36.5021 180.893 36.8992 180.801 37.3669 180.801C37.8346 180.801 38.2317 180.893 38.5582 181.079C38.8847 181.255 39.1495 181.498 39.3524 181.807C39.5554 182.108 39.701 182.452 39.7893 182.841C39.8863 183.229 39.9349 183.631 39.9349 184.046C39.9349 184.444 39.8863 184.832 39.7893 185.212C39.701 185.583 39.5554 185.919 39.3524 186.219C39.1495 186.519 38.8847 186.762 38.5582 186.948C38.2317 187.124 37.8346 187.213 37.3669 187.213C36.8992 187.213 36.5021 187.124 36.1756 186.948C35.8491 186.762 35.5843 186.519 35.3814 186.219C35.1784 185.919 35.0284 185.583 34.9313 185.212C34.8431 184.832 34.7989 184.444 34.7989 184.046ZM32.7207 184.046C32.7207 184.735 32.8266 185.38 33.0384 185.981C33.2502 186.572 33.5547 187.089 33.9518 187.531C34.3489 187.972 34.8342 188.321 35.4078 188.577C35.9903 188.824 36.6433 188.948 37.3669 188.948C38.0993 188.948 38.7524 188.824 39.326 188.577C39.8996 188.321 40.3849 187.972 40.782 187.531C41.1791 187.089 41.4836 186.572 41.6954 185.981C41.9072 185.38 42.0131 184.735 42.0131 184.046C42.0131 183.34 41.9072 182.686 41.6954 182.086C41.4836 181.476 41.1791 180.946 40.782 180.496C40.3849 180.046 39.8996 179.692 39.326 179.436C38.7524 179.18 38.0993 179.052 37.3669 179.052C36.6433 179.052 35.9903 179.18 35.4078 179.436C34.8342 179.692 34.3489 180.046 33.9518 180.496C33.5547 180.946 33.2502 181.476 33.0384 182.086C32.8266 182.686 32.7207 183.34 32.7207 184.046Z" fill="white"></path>
		<path d="M44.9691 184.046C44.9691 183.631 45.0133 183.229 45.1015 182.841C45.1986 182.452 45.3486 182.108 45.5516 181.807C45.7545 181.498 46.0193 181.255 46.3458 181.079C46.6723 180.893 47.0694 180.801 47.5371 180.801C48.0048 180.801 48.4019 180.893 48.7284 181.079C49.0549 181.255 49.3197 181.498 49.5226 181.807C49.7256 182.108 49.8712 182.452 49.9595 182.841C50.0565 183.229 50.1051 183.631 50.1051 184.046C50.1051 184.444 50.0565 184.832 49.9595 185.212C49.8712 185.583 49.7256 185.919 49.5226 186.219C49.3197 186.519 49.0549 186.762 48.7284 186.948C48.4019 187.124 48.0048 187.213 47.5371 187.213C47.0694 187.213 46.6723 187.124 46.3458 186.948C46.0193 186.762 45.7545 186.519 45.5516 186.219C45.3486 185.919 45.1986 185.583 45.1015 185.212C45.0133 184.832 44.9691 184.444 44.9691 184.046ZM42.8909 184.046C42.8909 184.735 42.9968 185.38 43.2086 185.981C43.4204 186.572 43.7249 187.089 44.122 187.531C44.5191 187.972 45.0044 188.321 45.578 188.577C46.1605 188.824 46.8135 188.948 47.5371 188.948C48.2695 188.948 48.9226 188.824 49.4962 188.577C50.0698 188.321 50.5551 187.972 50.9522 187.531C51.3493 187.089 51.6538 186.572 51.8656 185.981C52.0774 185.38 52.1833 184.735 52.1833 184.046C52.1833 183.34 52.0774 182.686 51.8656 182.086C51.6538 181.476 51.3493 180.946 50.9522 180.496C50.5551 180.046 50.0698 179.692 49.4962 179.436C48.9226 179.18 48.2695 179.052 47.5371 179.052C46.8135 179.052 46.1605 179.18 45.578 179.436C45.0044 179.692 44.5191 180.046 44.122 180.496C43.7249 180.946 43.4204 181.476 43.2086 182.086C42.9968 182.686 42.8909 183.34 42.8909 184.046Z" fill="white"></path>
		<path d="M54.8878 185.596H52.8758C52.867 186.179 52.9729 186.683 53.1935 187.107C53.4141 187.531 53.7098 187.879 54.0804 188.153C54.4599 188.427 54.8923 188.626 55.3776 188.749C55.8718 188.882 56.3792 188.948 56.8999 188.948C57.5441 188.948 58.1088 188.873 58.5942 188.723C59.0884 188.573 59.4987 188.365 59.8252 188.1C60.1606 187.826 60.4121 187.504 60.5797 187.133C60.7474 186.762 60.8312 186.36 60.8312 185.928C60.8312 185.398 60.7165 184.965 60.4871 184.629C60.2664 184.285 60.0017 184.011 59.6928 183.808C59.384 183.605 59.0707 183.459 58.753 183.371C58.4442 183.274 58.2015 183.207 58.025 183.172C57.4337 183.022 56.9528 182.898 56.5822 182.801C56.2204 182.704 55.9336 182.607 55.7218 182.51C55.5188 182.412 55.382 182.306 55.3114 182.192C55.2408 182.077 55.2055 181.927 55.2055 181.741C55.2055 181.538 55.2496 181.37 55.3379 181.238C55.4261 181.105 55.5365 180.995 55.6688 180.907C55.81 180.818 55.9644 180.756 56.1321 180.721C56.2998 180.686 56.4674 180.668 56.6351 180.668C56.891 180.668 57.1249 180.69 57.3367 180.734C57.5573 180.779 57.7514 180.854 57.9191 180.96C58.0868 181.066 58.2191 181.211 58.3162 181.397C58.4221 181.582 58.4839 181.816 58.5015 182.099H60.5135C60.5135 181.551 60.4076 181.088 60.1959 180.708C59.9929 180.319 59.7149 180.001 59.3619 179.754C59.0089 179.507 58.603 179.33 58.1441 179.224C57.6941 179.109 57.222 179.052 56.7278 179.052C56.3042 179.052 55.8806 179.109 55.457 179.224C55.0335 179.339 54.654 179.516 54.3187 179.754C53.9833 179.993 53.7098 180.293 53.498 180.655C53.295 181.008 53.1935 181.428 53.1935 181.913C53.1935 182.346 53.2729 182.717 53.4318 183.026C53.5994 183.327 53.8157 183.578 54.0804 183.781C54.3451 183.985 54.6452 184.152 54.9805 184.285C55.3158 184.408 55.66 184.514 56.013 184.603C56.3571 184.7 56.6969 184.788 57.0322 184.868C57.3676 184.947 57.6676 185.04 57.9323 185.146C58.1971 185.252 58.4089 185.384 58.5677 185.543C58.7354 185.702 58.8192 185.91 58.8192 186.166C58.8192 186.404 58.7574 186.603 58.6339 186.762C58.5104 186.912 58.3559 187.032 58.1706 187.12C57.9853 187.208 57.7867 187.27 57.5749 187.305C57.3631 187.332 57.1646 187.345 56.9793 187.345C56.7057 187.345 56.441 187.314 56.1851 187.252C55.9291 187.182 55.7041 187.08 55.51 186.948C55.3247 186.806 55.1746 186.625 55.0599 186.404C54.9452 186.184 54.8878 185.914 54.8878 185.596Z" fill="white"></path>
		<path d="M61.9354 179.277V188.736H64.0136V184.656H67.839V188.736H69.9172V179.277H67.839V182.907H64.0136V179.277H61.9354Z" fill="white"></path>
		<path d="M196.731 184V188.948H202.31V184H196.731Z" fill="white"></path>
		<path d="M230.874 188.948C233.564 188.948 234.847 187.566 234.847 184.262V183.773C234.847 180.47 233.564 179.087 230.874 179.087C228.17 179.087 226.888 180.47 226.888 183.773V184.262C226.888 187.566 228.17 188.948 230.874 188.948ZM230.805 187.517C229.302 187.517 228.777 186.416 228.777 184.262V183.773C228.777 181.62 229.302 180.519 230.805 180.519H230.929C232.433 180.519 232.957 181.62 232.957 183.773V184.262C232.957 186.416 232.433 187.517 230.929 187.517H230.805Z" fill="white"></path>
		<path d="M248.765 184.617C250.475 184.886 250.889 185.425 250.779 186.208L250.765 186.305C250.655 187.101 249.924 187.517 248.765 187.517H248.627C247.468 187.517 246.792 186.966 247.054 185.571H245.206L245.165 185.841C244.847 187.908 246.185 188.948 248.641 188.948C250.986 188.948 252.379 188.055 252.627 186.416L252.668 186.146C252.903 184.605 251.951 183.663 249.661 183.296C247.923 183.014 247.606 182.549 247.717 181.803L247.73 181.705C247.827 180.971 248.558 180.519 249.579 180.519H249.717C250.986 180.519 251.468 181.155 251.234 182.586H253.082L253.124 182.317C253.441 180.249 252.406 179.087 249.703 179.087C247.592 179.087 246.116 179.956 245.868 181.595L245.827 181.864C245.606 183.271 246.475 184.25 248.765 184.617Z" fill="white"></path>
		<path d="M259.801 179.246V183.21H256.146V179.246H254.297V188.789H256.146V184.629H259.801V188.789H261.649V179.246H259.801Z" fill="white"></path>
		<path d="M221.874 188.948H224.349L226.255 179.052H224.264L222.998 186.676L221.249 179.052H218.845L217.11 186.676L215.844 179.052H213.853L215.759 188.948H218.219L220.054 180.971L221.874 188.948Z" fill="white"></path>
		<path d="M213.338 185.374C213.338 185.886 213.196 186.326 212.913 186.695C212.639 187.063 212.224 187.387 211.667 187.665C211.444 187.782 210.917 188.02 210.087 188.38C209.155 188.784 208.648 188.986 208.567 188.986C208.557 188.986 208.238 188.761 207.61 188.312C207.256 188.061 206.921 187.881 206.607 187.773C206.304 187.665 205.964 187.571 205.589 187.49C205.225 187.4 204.875 187.355 204.541 187.355V187.153C204.966 186.874 205.351 186.591 205.696 186.304C206.101 185.962 206.374 185.792 206.516 185.792C206.962 185.792 207.539 185.931 208.248 186.209C208.765 186.407 209.14 186.582 209.373 186.735C209.606 186.888 209.823 187.077 210.026 187.301C210.158 187.445 210.274 187.517 210.375 187.517C210.517 187.517 210.639 187.441 210.74 187.288C210.841 187.126 210.892 186.942 210.892 186.735C210.892 186.214 210.416 185.72 209.464 185.252C208.572 184.839 207.681 184.426 206.79 184.012C205.817 183.455 205.331 182.817 205.331 182.098C205.331 181.739 205.448 181.406 205.681 181.101C206.005 180.669 206.542 180.315 207.291 180.036C209.033 179.38 209.985 179.052 210.148 179.052C210.178 179.052 210.421 179.277 210.877 179.726C211.12 179.969 211.363 180.166 211.606 180.319C211.738 180.409 211.91 180.494 212.123 180.575C212.72 180.809 213.029 180.93 213.05 180.939C212.958 181.02 212.644 181.182 212.108 181.424C211.925 181.505 211.657 181.622 211.302 181.775C211.171 181.748 211.059 181.725 210.968 181.707C210.441 181.582 210.001 181.438 209.646 181.276C209.211 181.06 208.871 180.75 208.628 180.346C208.537 180.202 208.436 180.13 208.324 180.13C208.182 180.13 208.036 180.207 207.884 180.359C207.701 180.548 207.61 180.768 207.61 181.02C207.61 181.218 208.193 181.568 209.357 182.071C210.036 182.368 210.573 182.619 210.968 182.826C211.849 183.293 212.422 183.648 212.685 183.891C213.12 184.286 213.338 184.781 213.338 185.374Z" fill="white"></path>
		<path d="M241.609 180.498H238.451V181.202H237.661V186.836H238.451V187.54H241.609V186.836H242.399V181.202H241.609V180.498ZM237.661 179.794V179.09H242.399V179.794H243.188V180.498H243.978V187.54H243.188V188.244H242.399V188.948H237.661V188.244H236.872V187.54H236.082V180.498H236.872V179.794H237.661Z" fill="white"></path>
		<path d="M285.649 188.742H290.575V187.575H288.77V180.167H290.575V179H285.649V180.167H287.454V187.575H285.649V188.742Z" fill="white"></path>
		<path d="M293.324 188.742H296.133C298.602 188.742 299.728 186.436 299.728 183.735C299.728 181.144 298.534 179 296.187 179H293.324V188.742ZM294.64 187.616V180.126H295.997C297.72 180.126 298.385 181.795 298.385 183.817C298.385 185.771 297.774 187.616 296.105 187.616H294.64Z" fill="white"></path>
		<path d="M303.685 183.179H305.096V181.741H303.685V183.179ZM303.685 188.742H305.096V187.304H303.685V188.742Z" fill="white"></path>
		<path d="M312.526 189C315.104 189 315.796 186.531 315.796 184.102C315.783 181.7 315.104 179.204 312.526 179.204C309.935 179.204 309.256 181.7 309.256 184.102C309.256 186.476 309.921 189 312.526 189ZM312.526 187.928C311.224 187.928 310.532 186.571 310.532 184.102C310.532 181.551 311.251 180.275 312.526 180.275C313.829 180.275 314.521 181.551 314.521 184.102C314.521 186.666 313.829 187.928 312.526 187.928Z" fill="white"></path>
		<path d="M320.662 189C323.24 189 323.932 186.531 323.932 184.102C323.919 181.7 323.24 179.204 320.662 179.204C318.071 179.204 317.392 181.7 317.392 184.102C317.392 186.476 318.057 189 320.662 189ZM320.662 187.928C319.36 187.928 318.668 186.571 318.668 184.102C318.668 181.551 319.387 180.275 320.662 180.275C321.965 180.275 322.657 181.551 322.657 184.102C322.657 186.666 321.965 187.928 320.662 187.928Z" fill="white"></path>
		<path d="M326.328 188.742H331.919V187.616H329.87V179.204H328.934C328.757 179.95 328.486 180.425 328.106 180.655C327.726 180.872 327.143 180.995 326.369 181.022V181.972H328.594V187.616H326.328V188.742Z" fill="white"></path>
		<path d="M333.84 186.449C333.854 188.023 335.061 189 336.676 189C339.39 189 340.136 186.028 340.136 183.627C340.136 180.682 338.996 179.204 336.798 179.204C334.898 179.204 333.732 180.628 333.732 182.474C333.732 184.305 334.898 185.554 336.73 185.554C337.68 185.554 338.399 185.174 338.915 184.414L338.942 184.441C338.711 186.015 338.481 188.009 336.649 188.009C335.672 188.009 335.116 187.399 335.034 186.449H333.84ZM336.907 184.482C335.59 184.482 334.966 183.749 334.966 182.419C334.966 181.239 335.604 180.275 336.812 180.275C338.074 180.275 338.738 181.117 338.738 182.311C338.738 183.559 338.155 184.482 336.907 184.482Z" fill="white"></path>
		<path d="M345.07 189C347.648 189 348.34 186.531 348.34 184.102C348.326 181.7 347.648 179.204 345.07 179.204C342.478 179.204 341.8 181.7 341.8 184.102C341.8 186.476 342.464 189 345.07 189ZM345.07 187.928C343.767 187.928 343.075 186.571 343.075 184.102C343.075 181.551 343.794 180.275 345.07 180.275C346.372 180.275 347.064 181.551 347.064 184.102C347.064 186.666 346.372 187.928 345.07 187.928Z" fill="white"></path>
		<path d="M353.205 189C355.783 189 356.475 186.531 356.475 184.102C356.462 181.7 355.783 179.204 353.205 179.204C350.614 179.204 349.935 181.7 349.935 184.102C349.935 186.476 350.6 189 353.205 189ZM353.205 187.928C351.903 187.928 351.211 186.571 351.211 184.102C351.211 181.551 351.93 180.275 353.205 180.275C354.508 180.275 355.2 181.551 355.2 184.102C355.2 186.666 354.508 187.928 353.205 187.928Z" fill="white"></path>
		<path d="M358.872 188.742H364.462V187.616H362.413V179.204H361.477C361.3 179.95 361.029 180.425 360.649 180.655C360.269 180.872 359.686 180.995 358.912 181.022V181.972H361.138V187.616H358.872V188.742Z" fill="white"></path>
	</g>
	<!-- {/* Marquee Swoosh ID - Member Number */} -->
	<text id="textMarquee" class="font-smoothing" x="93" y="189" fill="white" style="text-shadow: 0 0 0px #fff, 0 0 1px #fff, 0 0 8px #fff; text-transform: uppercase;" font-size="0.83rem" font-family="Helvetica Monospaced Pro, Helvetica, Arial, sans-serif">ID:0000107</text>
	<!-- {/* Marquee Swoosh ID - Member Number */} -->
	<!-- {/* Card Color */} -->
	<rect id="cardColor" x="16" y="216" width="288" height="288" rx="8" fill="#041536"></rect>
	<!-- {/* Card Color */} -->
	<!-- {/* Logo glow */} -->
	<g filter="url(#filter4_f_101_5074)">
		<svg id="imageLogoGlow" x="48" y="242" width="225" height="225" viewBox="0 0 256 256"><defs><style>.cls-1{fill:#fff;}</style></defs><path class="cls-1" d="M67.19,72.83l-4.13,48.39,17.5-48.39h25.89l-39.44,110.27h-25.57l3.08-53.05-18.96,53.05H0L39.28,72.83h27.91Zm31.4,110.27l39.46-110.27h-25.83l-39.49,110.27h25.86Zm123.78,.06l7.29-22.09h-27.65l9.48-26.26h22.49l6.86-19.52h-22.31l7.73-21.94h22.48l7.27-20.46h-72.39l-26.19,31.93,12.07-31.93h-25.78l-39.31,110.26h25.75l16.64-47.22,.37,47.22h75.22m-16.95-106.4l1.86-1.7-36.12,101.2-1.87-55.16,36.13-44.34Z"></path></svg>
	</g>
	<!-- {/* Logo glow */} -->
	<!-- {/* Logo */} -->
	<svg id="imageLogo" x="48" y="242" width="225" height="225" viewBox="0 0 256 256"><defs><style>.cls-1{fill:#fff;}</style></defs><path class="cls-1" d="M67.19,72.83l-4.13,48.39,17.5-48.39h25.89l-39.44,110.27h-25.57l3.08-53.05-18.96,53.05H0L39.28,72.83h27.91Zm31.4,110.27l39.46-110.27h-25.83l-39.49,110.27h25.86Zm123.78,.06l7.29-22.09h-27.65l9.48-26.26h22.49l6.86-19.52h-22.31l7.73-21.94h22.48l7.27-20.46h-72.39l-26.19,31.93,12.07-31.93h-25.78l-39.31,110.26h25.75l16.64-47.22,.37,47.22h75.22m-16.95-106.4l1.86-1.7-36.12,101.2-1.87-55.16,36.13-44.34Z"></path></svg>
	<!-- {/* Logo */} -->
	<defs>
		<filter id="filter0_i_1_48" x="16" y="16.124" width="288" height="136" filterUnits="userSpaceOnUse" color-interpolation-filters="sRGB">
			<feFlood flood-opacity="0" result="BackgroundImageFix"></feFlood>
			<feBlend mode="normal" in="SourceGraphic" in2="BackgroundImageFix" result="shape"></feBlend>
			<feColorMatrix in="SourceAlpha" type="matrix" values="0 0 0 0 0 0 0 0 0 0 0 0 0 0 0 0 0 0 127 0" result="hardAlpha"></feColorMatrix>
			<feOffset></feOffset>
			<feGaussianBlur stdDeviation="3"></feGaussianBlur>
			<feComposite in2="hardAlpha" operator="arithmetic" k2="-1" k3="1"></feComposite>
			<feColorMatrix type="matrix" values="0 0 0 0 0 0 0 0 0 0 0 0 0 0 0 0 0 0 0.15 0"></feColorMatrix>
			<feBlend mode="normal" in2="shape" result="effect1_innerShadow_1_48"></feBlend>
		</filter>
		<filter id="filter1_d_1_48" x="23.32" y="58.9475" width="185.26" height="37.88" filterUnits="userSpaceOnUse" color-interpolation-filters="sRGB">
			<feFlood flood-opacity="0" result="BackgroundImageFix"></feFlood>
			<feColorMatrix in="SourceAlpha" type="matrix" values="0 0 0 0 0 0 0 0 0 0 0 0 0 0 0 0 0 0 127 0" result="hardAlpha"></feColorMatrix>
			<feOffset dy="4"></feOffset>
			<feGaussianBlur stdDeviation="2"></feGaussianBlur>
			<feComposite in2="hardAlpha" operator="out"></feComposite>
			<feColorMatrix type="matrix" values="0 0 0 0 0 0 0 0 0 0 0 0 0 0 0 0 0 0 0.25 0"></feColorMatrix>
			<feBlend mode="normal" in2="BackgroundImageFix" result="effect1_dropShadow_1_48"></feBlend>
			<feBlend mode="normal" in="SourceGraphic" in2="effect1_dropShadow_1_48" result="shape"></feBlend>
		</filter>
		<filter id="filter2_i_1_48" x="16" y="168" width="288" height="32" filterUnits="userSpaceOnUse" color-interpolation-filters="sRGB">
			<feFlood flood-opacity="0" result="BackgroundImageFix"></feFlood>
			<feBlend mode="normal" in="SourceGraphic" in2="BackgroundImageFix" result="shape"></feBlend>
			<feColorMatrix in="SourceAlpha" type="matrix" values="0 0 0 0 0 0 0 0 0 0 0 0 0 0 0 0 0 0 127 0" result="hardAlpha"></feColorMatrix>
			<feOffset></feOffset>
			<feGaussianBlur stdDeviation="3"></feGaussianBlur>
			<feComposite in2="hardAlpha" operator="arithmetic" k2="-1" k3="1"></feComposite>
			<feColorMatrix type="matrix" values="0 0 0 0 0 0 0 0 0 0 0 0 0 0 0 0 0 0 0.15 0"></feColorMatrix>
			<feBlend mode="normal" in2="shape" result="effect1_innerShadow_1_48"></feBlend>
		</filter>
		<filter id="filter3_f_1_48" x="1" y="175" width="839.935" height="18" filterUnits="userSpaceOnUse" color-interpolation-filters="sRGB">
			<feFlood flood-opacity="0" result="BackgroundImageFix"></feFlood>
			<feBlend mode="normal" in="SourceGraphic" in2="BackgroundImageFix" result="shape"></feBlend>
			<feGaussianBlur stdDeviation="2" result="effect1_foregroundBlur_1_48"></feGaussianBlur>
		</filter>
		<!-- {/* Logo glow filter */} -->
		<filter id="filter4_f_101_5074" x="48" y="242" width="225" height="225" filterUnits="userSpaceOnUse" colorinterpolationfilters="sRGB">
			<feBlend mode="normal" in="SourceGraphic" in2="BackgroundImageFix" result="shape"></feBlend>
			<feGaussianBlur stdDeviation="3" result="effect1_foregroundBlur_101_5074"></feGaussianBlur>
		</filter>
		<!-- {/* Logo glow filter */} -->
		<radialGradient id="paint0_radial_1_48" cx="0" cy="0" r="1" gradientUnits="userSpaceOnUse" gradientTransform="translate(-9.49996 -22.75) rotate(58.609) scale(853.37 505.523)">
			<stop stop-color="#747474" stop-opacity="0.991501"></stop>
			<stop stop-color="#B6B6B6"></stop>
			<stop offset="1" stop-color="#DADADA" stop-opacity="0"></stop>
		</radialGradient>
		<clipPath id="clip0_1_48">
			<rect width="288" height="32" fill="white" transform="translate(16 168)"></rect>
		</clipPath>
	</defs>
  </g>
</svg>
